<svg xmlns="http://www.w3.org/2000/svg"  viewBox="0 0 100 100" width="200px" height="200px"><path d="M 50 15 C 46.486 15 43.094578 15.525141 39.892578 16.494141 C 39.926578 16.492141 39.958188 16.489328 39.992188 16.486328 C 34.851188 17.518328 29.829922 19.300562 25.044922 21.101562 C 24.367922 21.354563 23.971094 22.079156 24.121094 22.785156 C 24.203094 23.170156 24.429766 23.502797 24.759766 23.716797 C 25.089766 23.930797 25.482188 24.000875 25.867188 23.921875 C 26.153188 23.860875 26.495859 23.807719 26.880859 23.761719 C 19.605859 30.179719 15 39.558 15 50 C 15 55.758 16.417578 61.183516 18.892578 65.978516 C 19.323578 67.728516 20.053703 69.362922 21.095703 70.794922 C 21.712703 71.643922 22.398141 72.405 23.119141 73.125 C 23.145141 73.159 23.174984 73.187844 23.208984 73.214844 C 24.149984 74.141844 25.176109 74.966266 26.287109 75.697266 C 32.527109 81.462266 40.854 85 50 85 C 55.765 85 61.196234 83.583609 65.990234 81.099609 C 67.332234 81.071609 68.692078 81.041766 70.080078 81.009766 L 70.511719 81 C 70.511719 81 70.513672 80.998047 70.513672 80.998047 C 77.951672 80.990047 84 74.939 84 67.5 C 84 67.323 83.997234 67.146703 83.990234 66.970703 L 83.953125 66.970703 C 84.139125 66.470703 84.255859 65.935094 84.255859 65.371094 C 84.254859 64.075094 83.716469 62.906406 82.855469 62.066406 L 82.861328 62.064453 C 82.854328 62.049453 82.845844 62.036484 82.839844 62.021484 C 84.220844 58.268484 85 54.226 85 50 C 85 30.701 69.299 15 50 15 z M 47.525391 16.605469 C 48.770391 16.579469 49.912703 16.627813 50.970703 16.757812 C 55.678703 17.334813 58.822453 19.136328 60.314453 22.111328 C 61.059453 23.598328 61.273172 25.190953 61.201172 26.626953 C 59.330172 25.258953 56.987 24.515625 54.5 24.515625 C 53.068 24.515625 51.688625 24.769906 50.390625 25.253906 C 48.806625 24.230906 45.263734 23.525703 41.302734 23.095703 C 42.533734 20.561703 44.633594 18.353453 47.433594 16.689453 C 47.470594 16.667453 47.496391 16.634469 47.525391 16.605469 z M 45.585938 16.705078 C 43.166938 18.421078 41.344094 20.567281 40.246094 22.988281 C 38.509094 22.824281 36.722859 22.710531 35.005859 22.644531 C 35.004859 22.580531 35 22.517125 35 22.453125 C 35 21.094125 35.263297 19.77625 35.779297 18.53125 C 39.003297 17.63125 42.283938 16.957078 45.585938 16.705078 z M 57.736328 17.933594 C 72.210328 21.424594 83 34.469 83 50 C 83 53.382 82.472484 56.639891 81.521484 59.712891 C 79.022484 56.179891 74.936 54 70.5 54 C 67.912 54 65.499359 54.745672 63.443359 56.013672 C 63.409359 56.017672 63.375797 56.015344 63.341797 56.027344 C 52.700797 59.598344 44.899281 60.5625 37.488281 59.1875 C 40.883281 55.6135 56.510641 38.984203 61.056641 31.033203 C 61.489641 30.277203 61.89375 29.139406 62.09375 27.816406 C 62.12775 27.735406 62.140859 27.651406 62.130859 27.566406 C 62.361859 25.765406 62.202031 23.648016 61.207031 21.666016 C 60.600031 20.455016 59.544328 19.075594 57.736328 17.933594 z M 34.591797 18.876953 C 34.206797 20.026953 34 21.223125 34 22.453125 C 34 22.506125 34.004859 22.558328 34.005859 22.611328 C 31.812859 22.550328 29.787313 22.570109 28.195312 22.662109 C 28.193313 22.661109 28.187547 22.660156 28.185547 22.660156 C 28.184547 22.661156 28.183641 22.661109 28.181641 22.662109 C 27.122641 22.724109 26.250109 22.818359 25.662109 22.943359 C 25.537109 22.969359 25.412641 22.945906 25.306641 22.878906 C 25.200641 22.809906 25.127562 22.703125 25.101562 22.578125 C 25.053563 22.351125 25.179484 22.119109 25.396484 22.037109 C 28.379484 20.914109 31.458797 19.805953 34.591797 18.876953 z M 32.306641 23.546875 C 32.998641 23.553 33.715766 23.56975 34.447266 23.59375 C 34.471266 23.59775 34.494531 23.607422 34.519531 23.607422 C 34.529531 23.607422 34.540781 23.606469 34.550781 23.605469 C 34.562781 23.604469 34.570031 23.599656 34.582031 23.597656 C 36.485031 23.663656 38.483438 23.790516 40.398438 23.978516 C 40.449438 23.995516 40.500734 24.009766 40.552734 24.009766 C 40.566734 24.009766 40.57975 23.997094 40.59375 23.996094 C 44.98775 24.439094 48.898281 25.205109 50.113281 26.287109 C 50.199281 26.363109 50.207125 26.464578 50.203125 26.517578 C 50.196125 26.620578 50.143594 26.711531 50.058594 26.769531 L 48.904297 27.552734 C 43.316297 31.347734 29.617375 41.0525 23.109375 49.1875 C 20.499375 52.4505 18.966781 56.269047 18.550781 59.998047 C 17.545781 56.842047 17 53.484 17 50 C 17 39.18 22.247406 29.577641 30.316406 23.556641 C 30.946906 23.544141 31.614641 23.54075 32.306641 23.546875 z M 54.5 25.515625 C 56.99 25.515625 59.309172 26.333547 61.076172 27.810547 C 60.890172 28.944547 60.5455 29.910109 60.1875 30.537109 C 58.9225 32.749109 56.739406 35.693562 54.191406 38.851562 C 52.553406 34.808563 48.699969 32.128672 44.292969 32.013672 C 46.500969 30.417672 48.336797 29.149812 49.466797 28.382812 L 50.621094 27.597656 C 50.963094 27.365656 51.175172 26.993078 51.201172 26.580078 C 51.213172 26.398078 51.183047 26.222594 51.123047 26.058594 C 52.198047 25.704594 53.328 25.515625 54.5 25.515625 z M 70.865234 28.46875 C 70.737109 28.469 70.609219 28.517734 70.511719 28.615234 C 70.317719 28.811234 70.319625 29.128266 70.515625 29.322266 C 71.254625 30.056266 71.958375 30.834719 72.609375 31.636719 C 72.708375 31.757719 72.852047 31.820313 72.998047 31.820312 C 73.109047 31.820312 73.221453 31.783984 73.314453 31.708984 C 73.528453 31.534984 73.560719 31.219859 73.386719 31.005859 C 72.712719 30.176859 71.98375 29.372281 71.21875 28.613281 C 71.12175 28.516781 70.993359 28.4685 70.865234 28.46875 z M 44 33 C 48.307 33 52.069078 35.705859 53.455078 39.755859 C 50.919078 42.853859 48.088938 46.107875 45.460938 49.046875 C 42.573937 45.031875 37.966 42.650391 33 42.650391 C 32.223 42.650391 31.4505 42.715078 30.6875 42.830078 C 34.6465 39.271078 39.119984 35.803219 42.833984 33.074219 C 43.217984 33.029219 43.608 33 44 33 z M 74.847656 33.498047 C 74.783516 33.508969 74.720359 33.533313 74.662109 33.570312 C 74.430109 33.719313 74.364672 34.029719 74.513672 34.261719 C 74.962672 34.958719 75.385484 35.682109 75.771484 36.412109 C 75.860484 36.582109 76.033891 36.679687 76.212891 36.679688 C 76.291891 36.679688 76.371313 36.660094 76.445312 36.621094 C 76.689312 36.491094 76.783297 36.189312 76.654297 35.945312 C 76.255297 35.189312 75.816516 34.440703 75.353516 33.720703 C 75.242516 33.547453 75.040078 33.465281 74.847656 33.498047 z M 77.326172 38.027344 C 77.261219 38.027062 77.194359 38.040156 77.130859 38.066406 C 76.876859 38.173406 76.756281 38.466703 76.863281 38.720703 C 78.365281 42.294703 79.126953 46.089 79.126953 50 C 79.126953 50.663 79.1055 51.319656 79.0625 51.972656 C 79.0445 52.247656 79.251344 52.487859 79.527344 52.505859 C 79.538344 52.506859 79.5505 52.505859 79.5625 52.505859 C 79.8235 52.505859 80.042547 52.303062 80.060547 52.039062 C 80.104547 51.363062 80.128906 50.677 80.128906 50 C 80.128906 45.955 79.339156 42.028984 77.785156 38.333984 C 77.704906 38.142734 77.521031 38.028187 77.326172 38.027344 z M 33.001953 43.650391 C 37.718953 43.650391 42.078578 45.957359 44.767578 49.818359 C 40.440578 54.633359 36.811609 58.451406 36.224609 59.066406 C 29.389609 59.663406 23.957094 64.957359 23.121094 71.693359 C 22.696094 71.220359 22.28725 70.730078 21.90625 70.205078 C 17.95125 64.770078 18.785625 56.1925 23.890625 49.8125 C 25.354625 47.9815 27.215484 46.054859 29.271484 44.130859 C 29.289484 44.127859 29.308172 44.131953 29.326172 44.126953 C 30.518172 43.811953 31.755953 43.650391 33.001953 43.650391 z M 70.5 55 C 74.912 55 78.951313 57.327109 81.195312 61.037109 C 80.703312 60.858109 80.179953 60.744141 79.626953 60.744141 C 77.074953 60.744141 75 62.819094 75 65.371094 C 75 67.923094 77.075953 70 79.626953 70 C 80.928953 70 82.103312 69.454938 82.945312 68.585938 C 82.392313 74.970938 77.026 80 70.5 80 C 63.607 80 58 74.393 58 67.5 C 58 60.607 63.607 55 70.5 55 z M 61.15625 57.779297 C 58.59925 60.236297 57 63.682 57 67.5 C 57 72.802 60.080109 77.38675 64.537109 79.59375 C 64.152109 79.78375 63.767047 79.974391 63.373047 80.150391 C 55.541047 80.291391 48.560109 80.277906 42.537109 79.628906 C 40.651109 77.125906 39.650391 74.145 39.650391 71 C 39.650391 67.137 41.164156 63.512875 43.910156 60.796875 C 43.913156 60.793875 43.914969 60.790109 43.917969 60.787109 C 49.010969 60.808109 54.54525 59.825297 61.15625 57.779297 z M 36.589844 60.025391 C 38.556844 60.430391 40.54375 60.676859 42.59375 60.755859 C 40.05475 63.575859 38.650391 67.172 38.650391 71 C 38.650391 74.053 39.536031 76.958656 41.207031 79.472656 C 33.913031 78.544656 28.115156 76.575578 24.035156 72.642578 C 24.458156 65.895578 29.806313 60.49025 36.570312 60.03125 C 36.577312 60.03125 36.582844 60.026391 36.589844 60.025391 z M 79.626953 61.744141 C 81.627953 61.744141 83.255859 63.371094 83.255859 65.371094 C 83.255859 67.371094 81.627953 69 79.626953 69 C 77.626953 69 76 67.371094 76 65.371094 C 76 63.371094 77.626953 61.744141 79.626953 61.744141 z M 79.626953 62.408203 C 78.089953 62.408203 76.839844 63.658312 76.839844 65.195312 C 76.839844 66.732313 78.089953 67.982422 79.626953 67.982422 C 81.163953 67.982422 82.414062 66.732312 82.414062 65.195312 C 82.414062 63.658312 81.164953 62.408203 79.626953 62.408203 z M 69 64.550781 C 65.995 64.550781 63.550781 66.995 63.550781 70 C 63.550781 73.005 65.995 75.449219 69 75.449219 C 72.005 75.449219 74.449219 73.005 74.449219 70 C 74.449219 66.995 72.005 64.550781 69 64.550781 z M 69 65.550781 C 71.454 65.550781 73.449219 67.546 73.449219 70 C 73.449219 72.454 71.454 74.449219 69 74.449219 C 66.546 74.449219 64.550781 72.454 64.550781 70 C 64.550781 67.546 66.546 65.550781 69 65.550781 z M 69 66.5 A 3.5 3.5 0 1 0 69 73.5 A 3.5 3.5 0 1 0 69 66.5 z M 77.740234 70.65625 C 77.610234 70.655062 77.477359 70.677969 77.349609 70.730469 L 75.501953 71.496094 C 74.993953 71.706094 74.750937 72.293687 74.960938 72.804688 C 75.165937 73.297687 75.549969 73.682719 76.042969 73.886719 C 76.289969 73.989719 76.548594 74.039062 76.808594 74.039062 C 77.068594 74.039062 77.328219 73.988719 77.574219 73.886719 C 78.068219 73.682719 78.45125 73.298687 78.65625 72.804688 C 78.86025 72.310688 78.86125 71.766484 78.65625 71.271484 C 78.498 70.890484 78.130234 70.659813 77.740234 70.65625 z M 77.732422 71.654297 C 77.835422 71.901297 77.835422 72.174875 77.732422 72.421875 C 77.630422 72.668875 77.438406 72.859891 77.191406 72.962891 C 76.944406 73.064891 76.673781 73.064891 76.425781 72.962891 C 76.178781 72.859891 75.986766 72.668875 75.884766 72.421875 L 77.732422 71.654297 z M 35.074219 79.373047 C 40.966219 80.837047 48.100844 81.224609 56.339844 81.224609 C 57.759844 81.224609 59.225937 81.211406 60.710938 81.191406 C 57.350938 82.353406 53.752 83 50 83 C 44.62 83 39.560219 81.673047 35.074219 79.373047 z"/></svg>