<svg aria-hidden="true" style="position: absolute; width: 0; height: 0; overflow: hidden;" version="1.1" xmlns="http://www.w3.org/2000/svg" xmlns:xlink="http://www.w3.org/1999/xlink">
<defs>
<symbol id="logo"  viewBox="0 0 32 32">
<path  d="M16 4.8c-1.124 0-2.21 0.168-3.234 0.478 0.011-0.001 0.021-0.002 0.032-0.003-1.645 0.33-3.252 0.901-4.783 1.477-0.217 0.081-0.344 0.313-0.296 0.539 0.026 0.123 0.099 0.23 0.204 0.298s0.231 0.091 0.354 0.066c0.092-0.020 0.201-0.037 0.324-0.051-2.328 2.054-3.802 5.055-3.802 8.396 0 1.843 0.454 3.579 1.246 5.113 0.138 0.56 0.372 1.083 0.705 1.541 0.197 0.272 0.417 0.515 0.647 0.746 0.008 0.011 0.018 0.020 0.029 0.029 0.301 0.297 0.629 0.56 0.985 0.794 1.997 1.845 4.661 2.977 7.588 2.977 1.845 0 3.583-0.453 5.117-1.248 0.429-0.009 0.865-0.018 1.309-0.029l0.138-0.003c0 0 0.001-0.001 0.001-0.001 2.38-0.003 4.316-1.939 4.316-4.319 0-0.057-0.001-0.113-0.003-0.169h-0.012c0.060-0.16 0.097-0.331 0.097-0.512-0-0.415-0.173-0.789-0.448-1.058l0.002-0.001c-0.002-0.005-0.005-0.009-0.007-0.014 0.442-1.201 0.691-2.495 0.691-3.847 0-6.176-5.024-11.2-11.2-11.2zM15.208 5.314c0.398-0.008 0.764 0.007 1.103 0.049 1.507 0.185 2.513 0.761 2.99 1.713 0.238 0.476 0.307 0.985 0.284 1.445-0.599-0.438-1.349-0.676-2.144-0.676-0.458 0-0.9 0.081-1.315 0.236-0.507-0.327-1.641-0.553-2.908-0.691 0.394-0.811 1.066-1.518 1.962-2.050 0.012-0.007 0.020-0.018 0.029-0.027zM14.588 5.346c-0.774 0.549-1.357 1.236-1.709 2.011-0.556-0.052-1.127-0.089-1.677-0.11-0-0.020-0.002-0.041-0.002-0.061 0-0.435 0.084-0.857 0.249-1.255 1.032-0.288 2.082-0.504 3.138-0.584zM18.476 5.739c4.632 1.117 8.084 5.291 8.084 10.261 0 1.082-0.169 2.125-0.473 3.108-0.8-1.131-2.107-1.828-3.527-1.828-0.828 0-1.6 0.239-2.258 0.644-0.011 0.001-0.022 0.001-0.032 0.004-3.405 1.143-5.902 1.451-8.273 1.011 1.086-1.144 6.087-6.465 7.542-9.009 0.139-0.242 0.268-0.606 0.332-1.029 0.011-0.026 0.015-0.053 0.012-0.080 0.074-0.576 0.023-1.254-0.296-1.888-0.194-0.388-0.532-0.829-1.111-1.194zM11.069 6.041c-0.123 0.368-0.189 0.751-0.189 1.144 0 0.017 0.002 0.034 0.002 0.051-0.702-0.020-1.35-0.013-1.859 0.016-0.001-0-0.002-0.001-0.003-0.001s-0.001 0-0.001 0.001c-0.339 0.020-0.618 0.050-0.806 0.090-0.040 0.008-0.080 0.001-0.114-0.021s-0.057-0.056-0.066-0.096c-0.015-0.073 0.025-0.147 0.094-0.173 0.955-0.359 1.94-0.714 2.942-1.011zM10.338 7.535c0.221 0.002 0.451 0.007 0.685 0.015 0.008 0.001 0.015 0.004 0.023 0.004 0.003 0 0.007-0 0.010-0.001s0.006-0.002 0.010-0.003c0.609 0.021 1.248 0.062 1.861 0.122 0.016 0.005 0.033 0.010 0.049 0.010 0.004 0 0.009-0.004 0.013-0.004 1.406 0.142 2.657 0.387 3.046 0.733 0.028 0.024 0.030 0.057 0.029 0.074-0.002 0.033-0.019 0.062-0.046 0.081l-0.369 0.251c-1.788 1.214-6.172 4.32-8.254 6.923-0.835 1.044-1.326 2.266-1.459 3.459-0.322-1.010-0.496-2.084-0.496-3.199 0-3.462 1.679-6.535 4.261-8.462 0.202-0.004 0.415-0.005 0.637-0.003zM17.44 8.165c0.797 0 1.539 0.262 2.104 0.734-0.060 0.363-0.17 0.672-0.284 0.873-0.405 0.708-1.103 1.65-1.919 2.661-0.524-1.294-1.757-2.151-3.168-2.188 0.707-0.511 1.294-0.916 1.656-1.162l0.369-0.251c0.109-0.074 0.177-0.193 0.186-0.326 0.004-0.058-0.006-0.114-0.025-0.167 0.344-0.113 0.706-0.174 1.081-0.174zM22.677 9.11c-0.041 0-0.082 0.016-0.113 0.047-0.062 0.063-0.061 0.164 0.001 0.226 0.236 0.235 0.462 0.484 0.67 0.741 0.032 0.039 0.078 0.059 0.124 0.059 0.036 0 0.072-0.012 0.101-0.036 0.068-0.056 0.079-0.157 0.023-0.225-0.216-0.265-0.449-0.523-0.694-0.766-0.031-0.031-0.072-0.046-0.113-0.046zM14.080 10.56c1.378 0 2.582 0.866 3.026 2.162-0.812 0.991-1.717 2.033-2.558 2.973-0.924-1.285-2.398-2.047-3.988-2.047-0.249 0-0.496 0.021-0.74 0.057 1.267-1.139 2.698-2.249 3.887-3.122 0.123-0.014 0.248-0.024 0.373-0.024zM23.951 10.719c-0.021 0.004-0.041 0.011-0.059 0.023-0.074 0.048-0.095 0.147-0.047 0.221 0.144 0.223 0.279 0.455 0.402 0.688 0.028 0.054 0.084 0.086 0.141 0.086 0.025 0 0.051-0.006 0.074-0.019 0.078-0.042 0.108-0.138 0.067-0.216-0.128-0.242-0.268-0.481-0.416-0.712-0.036-0.055-0.1-0.082-0.162-0.071zM24.744 12.169c-0.021-0-0.042 0.004-0.063 0.012-0.081 0.034-0.12 0.128-0.086 0.209 0.481 1.144 0.724 2.358 0.724 3.609 0 0.212-0.007 0.422-0.021 0.631-0.006 0.088 0.060 0.165 0.149 0.171 0.004 0 0.007 0 0.011 0 0.084 0 0.154-0.065 0.159-0.149 0.014-0.216 0.022-0.436 0.022-0.652 0-1.294-0.253-2.551-0.75-3.733-0.026-0.061-0.085-0.098-0.147-0.098zM10.561 13.968c1.509 0 2.905 0.738 3.765 1.974-1.385 1.541-2.546 2.763-2.734 2.959-2.187 0.191-3.926 1.885-4.193 4.041-0.136-0.151-0.267-0.308-0.389-0.476-1.266-1.739-0.999-4.484 0.635-6.526 0.468-0.586 1.064-1.202 1.722-1.818 0.006-0.001 0.012 0 0.018-0.001 0.381-0.101 0.778-0.152 1.176-0.152zM22.56 17.6c1.412 0 2.704 0.745 3.422 1.932-0.157-0.057-0.325-0.094-0.502-0.094-0.817 0-1.481 0.664-1.481 1.481s0.664 1.481 1.481 1.481c0.417 0 0.792-0.174 1.062-0.453-0.177 2.043-1.894 3.652-3.982 3.652-2.206 0-4-1.794-4-4s1.794-4 4-4zM19.57 18.489c-0.818 0.786-1.33 1.889-1.33 3.111 0 1.697 0.986 3.164 2.412 3.87-0.123 0.061-0.246 0.122-0.372 0.178-2.506 0.045-4.74 0.041-6.668-0.167-0.604-0.801-0.924-1.755-0.924-2.761 0-1.236 0.484-2.396 1.363-3.265 0.001-0.001 0.002-0.002 0.002-0.003 1.63 0.007 3.401-0.308 5.516-0.962zM11.709 19.208c0.629 0.13 1.265 0.208 1.921 0.234-0.812 0.902-1.262 2.053-1.262 3.278 0 0.977 0.283 1.907 0.818 2.711-2.334-0.297-4.189-0.927-5.495-2.186 0.135-2.159 1.847-3.889 4.011-4.036 0.002 0 0.004-0.002 0.006-0.002zM25.481 19.758c0.64 0 1.161 0.521 1.161 1.161s-0.521 1.161-1.161 1.161c-0.64 0-1.161-0.521-1.161-1.161s0.521-1.161 1.161-1.161zM25.481 19.971c-0.492 0-0.892 0.4-0.892 0.892s0.4 0.892 0.892 0.892c0.492 0 0.892-0.4 0.892-0.892s-0.4-0.892-0.892-0.892zM22.080 20.656c-0.962 0-1.744 0.782-1.744 1.744s0.782 1.744 1.744 1.744c0.962 0 1.744-0.782 1.744-1.744s-0.782-1.744-1.744-1.744zM22.080 20.976c0.785 0 1.424 0.638 1.424 1.424s-0.638 1.424-1.424 1.424c-0.785 0-1.424-0.638-1.424-1.424s0.638-1.424 1.424-1.424zM22.080 21.28c-0.619 0-1.12 0.501-1.12 1.12s0.501 1.12 1.12 1.12v0c0.619 0 1.12-0.501 1.12-1.12s-0.501-1.12-1.12-1.12v0zM24.877 22.61c-0.042-0-0.084 0.007-0.125 0.024l-0.591 0.245c-0.163 0.067-0.24 0.255-0.173 0.419 0.066 0.158 0.189 0.281 0.346 0.346 0.079 0.033 0.162 0.049 0.245 0.049s0.166-0.016 0.245-0.049c0.158-0.065 0.281-0.188 0.346-0.346s0.066-0.332 0-0.491c-0.051-0.122-0.168-0.196-0.293-0.197zM24.874 22.929c0.033 0.079 0.033 0.167 0 0.246s-0.094 0.14-0.173 0.173c-0.079 0.033-0.166 0.033-0.245 0s-0.14-0.094-0.173-0.173l0.591-0.246zM11.224 25.399c1.885 0.468 4.169 0.593 6.805 0.593 0.454 0 0.924-0.004 1.399-0.011-1.075 0.372-2.227 0.579-3.428 0.579-1.722 0-3.341-0.425-4.776-1.161z"></path>
</symbol>
</defs>
</svg>
